<?xml version="1.0" encoding="utf-8"?>
<!-- Generator: Adobe Illustrator 23.0.5, SVG Export Plug-In . SVG Version: 6.00 Build 0)  -->
<svg version="1.1" id="Capa_1" xmlns="http://www.w3.org/2000/svg" xmlns:xlink="http://www.w3.org/1999/xlink" x="0px" y="0px"
	 viewBox="0 0 792 612" style="enable-background:new 0 0 792 612;" xml:space="preserve">
<style type="text/css">
	.st0{fill:#393939;}
	.st1{fill:#818186;}
	.st2{fill:#86868C;}
	.st3{fill:#3E3E3E;}
	.st4{fill:#3A393A;}
	.st5{fill:#848486;}
	.st6{fill:#000100;}
	.st7{fill:#DFB121;}
	.st8{fill:#239E98;}
	.st9{fill:#010202;}
	.st10{fill:#030303;}
</style>
<g>
	<polygon class="st0" points="785.7,134.92 741.89,370.39 336.72,542.96 5.47,475.7 43.92,269.1 490.18,74.91 	"/>
	<g>
		<path class="st1" d="M339.3,477.67l21.11,20.18c0,0,0.77,0.69,2.52,0.13l34.28-13.24c0,0,0.67-0.43,0.18-0.96l-4.53-4.41
			c-0.69-0.67-1.68-0.19-1.68-0.19l-28.14,11.46c0,0-0.82,0.4-1.45-0.22l-9.35-9.28c0,0-0.85-0.88,0.37-1.27l34.26-13.62
			l14.54,14.59c0,0,1.11,1.49,2.57,0.81l34.17-13.86c0,0,1.04-0.79,0.1-1.74l-14.34-13.6c0,0-0.44-0.7,1.09-1.24l30.25-12.17
			l-15.14,20.52c0,0-0.59,0.75-0.2,1.21l3.58,4.2c0,0,0.59,0.67,1.18,0.34l87.95-34.9c0,0,1.22-0.54,0.29-1.55L518.13,414
			c0,0-0.4-0.67,0.23-1.06l7.62-3.15c0,0,0.9-0.48,2.01,0.88l14.56,14.88c0,0,0.71,0.93,2.25,0.32l3.95-1.89c0,0,0.98-0.51-0.1-1.65
			l-14.91-14.45c0,0-0.55-0.68,1.35-1.43l5.68-2.4c0,0,0.95-0.73,1.77,0.36l13.99,14.98c0,0,1.06,1.21,2.41,0.56l38.56-15.36
			c0,0,1.11-0.48,0.36-1.36l-3.96-4c0,0-0.92-0.9-1.96-0.4l-20.01,8.22c0,0-0.92,0.46-1.44-0.24l-1.85-1.78c0,0-0.53-0.68,0.5-1.25
			l19.55-7.6c0,0,0.74-0.6,0.04-1.55l-3.67-3.8c0,0-0.43-0.83-1.52-0.25l-19.85,8.07c0,0-0.83,0.49-1.38-0.19l-0.77-0.97
			c0,0-0.39-0.84,0.48-1.13l24.43-9.85c0,0,0.84-0.63,1.61,0.33l15.35,14.61c0,0,0.65,0.84,1.56,0.36l34.31-13.76
			c0,0,1.5-0.54,0.5-1.64l-4.18-4.25c0,0-0.69-0.94-2.29-0.11l-27.77,11.34c0,0-1.05,0.62-1.84-0.2l-34.6-33.85
			c0,0-0.54-0.89,0.44-1.26l29.27-11.75c0,0,0.97-0.32,0.1-1.26l-3.52-3.74c0,0-0.53-0.82-1.4-0.28l-29.48,12.37
			c0,0-0.98,0.41-1.79-0.36l-9.42-9.48c0,0-0.52-0.39,0.77-0.98l8.28-3.1c0,0,0.74-0.32,0.17-0.91l-3.26-3.17
			c0,0-0.47-0.9-1.61-0.33l-15.06,6.22c0,0-0.52,0.13,0.28,0.95l39.04,38.45l-31.66,12.4c0,0-1.69,1.08-0.55,2.49l14.35,13.89
			c0,0,0.47,0.66-0.39,1.1l-3.65,1.58c0,0-0.97,0.32-1.76-0.5l-13.78-14.06c0,0-0.71-1.28-2.27-0.7l-34.55,13.61
			c0,0-1.55,0.77-0.27,1.93l14.08,13.88c0,0,0.81,0.73-0.27,1.22l-3.4,1.25c0,0-0.73,0.28-1.45-0.48l-80.93-79.35
			c0,0-0.93-0.74,0.69-1.43l75.15-30.97c0,0,1.07-0.78,2.13,0.43l17.52,17.68c0,0,0.66,0.7,2.25,0.17l21.48-8.84
			c0,0,0.57-0.52,1.49,0.73l16.93,16.71c0,0,0.53,0.82,1.66,0.2l3.85-1.7c0,0,0.87-0.67-0.23-1.68l-21.31-20.93
			c0,0-0.74-1.14-2.75-0.2l-19.75,7.91c0,0-1.1,0.42-2.44-0.78l-16.98-16.99c0,0-0.75-1.35-2.43-0.49l-40.18,16.81
			c0,0-0.69,0.44-1.87-0.52l-63.98-62.03c0,0-0.8-0.67,0.17-1.31l26.23-10.89l34.61-17.4l-55.32-54.76c0,0-0.94-1.14-2.33-0.47
			l-6.37,2.59c0,0-0.78,0.31,0.5,1.71l39.84,38.56l-30.71,12.61c0,0-1.11,0.57-2.02-0.48l-54.64-52.78c0,0-0.47-0.6-1.3-0.2
			l-5.09,2.07c0,0-0.87,0.41-0.22,1.2l53.95,52.76c0,0,0.75,0.72-0.45,1.33l-15.11,6.07c0,0-0.68,0.42-1.22-0.41l-33.19-32.35
			c0,0-0.57-0.94-1.84-0.35l-4.38,2.02c0,0-1.31,0.44-0.11,1.68l20.59,19.97c0,0,1,0.83-0.36,1.55l-16.41,6.89
			c0,0-0.75,0.37-1.38-0.37l-4.45-4.5c0,0-0.54-0.59,0.34-0.92l10.37-4.13c0,0,0.95-0.55,0.27-1.23l-3.78-3.59
			c0,0-0.45-0.58-1.32-0.13l-16.96,6.81c0,0-0.83,0.33-0.22,1.16l14.34,13.92c0,0,1.1,1.14,2.68,0.35l22.18-9.57
			c0,0,0.65-0.4,1.42,0.57l72.6,71.26c0,0,1.11,0.92-0.15,1.52l-16.56,6.31c0,0-1.23,0.84-2.16-0.16l-3.95-4.16
			c0,0-0.79-0.78,0.12-1.25l10.32-4.12c0,0,0.77-0.35,0.32-1.1l-3.64-4.2c0,0-0.4-0.63-1.35-0.16l-15.11,6.68
			c0,0-1.6,1.19-0.25,2.94l12.87,12.75c0,0,0.88,1.07,2.34,0.4l21.86-9.58c0,0,0.92-0.75,1.83,0.33l9.73,9.66
			c0,0,0.68,0.76-0.57,1.24l-32.79,13.59c0,0-1.01,0.7-1.87-0.35l-5.49-5.9c0,0-0.66-0.93-1.78-0.47l-12.96,5.74
			c0,0-0.58,0.56-1.49-0.37l-69.48-68.76c0,0-0.4-0.38,0.23-0.63l34.45-14.54c0,0,0.85-0.41,0.21-1.29l-3.51-4.32
			c0,0-0.39-0.63-1.29-0.15l-35.21,14.55c0,0-1.12,1.06-2.15-0.23l-31.45-30.33c0,0-0.97-0.62,0.2-1.09l36.43-14.67
			c0,0,1.04-0.5,0.31-1.29l-18.01-17.85c0,0-0.63-0.62-1.58-0.25l-4.87,2.06c0,0-1.37,0.43-0.23,1.59l12.58,11.99
			c0,0,0.64,0.56-0.29,1.22l-29.27,12.01c0,0-1.12,0.91-2.89-0.87l-20.35-20.24c0,0-0.68-0.71-1.79-0.22l-4.46,1.72
			c0,0-1.25,0.53-0.28,1.5l42.92,41.94c0,0,1.24,1.17-0.39,1.9l-31.22,12.61l-14.91-14.94c0,0-1.32-1.13,0.58-1.88l15.96-6.2
			c0,0,0.57-0.52,1.47,0.51l4.04,4.23c0,0,0.81,0.73-0.43,1.19l-4.91,1.91c0,0-1.61,0.61-0.43,1.94l3.29,3.11
			c0,0,0.45,0.87,2.72-0.02l10.72-4.52c0,0,1.8-0.67,0.08-2.01l-15.08-14.28l-31.51,12.76L268,270.14l-9.4,4.48l-62.48-61.08
			l-6.43,2.81l83.74,82.3l-20.41,8.44l-39.47-39.05l-48.95,20.15l4.88,5.9l42.56-17.93l17.27,17.7l-18.04,7.88l-5.61-5.87
			l12.06-4.93l-4.89-5.35l-18.29,7.74l15.46,15.73l24.65-10.28l11.3,10.85l-41.85,17.54l77.12,69.41l-50.71,21.31l23.14,22.68
			l6.33-2.88l-17.74-17.61l64.28-26.12l-14.62-14.89l-5.67,3.2l8.59,8.37l-6.99,3.5l-13.92-13.8l32.99-13.74l79.39,76.68
			l-99.27,39.85l5.23,5.02l105.59-41.96l-66.98-65.27l51.65-21.5l13.09,12.69l5.97-2.19l-12.66-12.79l31.7-13.62l89.99,87.92
			l-23.05,9.7l-16.43-15.64l-6.44,2.48l15.71,15.87l-30.77,12.49l15.21-20.38l-5.44-5.84L339.3,477.67z"/>
		<polygon class="st2" points="388.71,285.15 403.08,279.94 386.82,264.17 354.83,276.83 380.36,303.45 398.6,295.19 400.03,287.71 
			381.8,295.71 367.53,278.89 385.53,271.41 391.07,277.3 384.39,280.45 		"/>
		<polygon class="st3" points="263.62,279.74 280.57,295.74 313.6,281.82 349.48,308.26 359.73,304.22 313.42,259.2 		"/>
		<polygon class="st0" points="259.84,311.74 325.48,375.93 400.38,344.58 364.5,308.62 347.55,315.97 318.56,287.94 		"/>
		<polygon class="st0" points="253.05,314.66 301.47,361.12 265.98,375.8 216.4,329.08 		"/>
		<polygon class="st0" points="403.71,474.23 427.2,464.81 417.11,454.81 393.33,463.8 		"/>
		<polygon class="st4" points="392.5,249.2 400.28,257.03 435.12,243.36 437.54,230.34 		"/>
		<polygon class="st1" points="210.37,468.09 250.05,452.02 178.8,382.2 220.09,364.75 220.89,357.51 173.85,376.65 152.01,355.75 
			194.79,338.12 208.21,350.7 214.68,348.04 169.71,304.46 163.58,307.19 189.81,332.76 183.09,335.75 142.8,297.16 136.62,300.2 
			176.27,338.34 139.97,353.3 166.64,379.35 110.26,402.91 136.63,428.71 90.79,447.22 95.94,452.62 148.32,431.08 122.03,404.92 
			172.18,384.64 193.56,405.07 179.19,411.23 167.24,399.53 161.04,402.63 172.23,413.6 153.61,421.18 172.89,440.23 122.88,461.68 
			127.72,466.83 198.4,437.46 184.38,423.26 178.11,425.77 186.98,434.58 179.5,437.79 165.9,424.24 199.07,410.54 238.99,449.11 
			205.79,463 		"/>
		<polygon class="st5" points="595.08,296.04 632.16,333.15 637.95,330.34 605.15,298.09 623.34,289.95 587.03,254.37 621.38,240.3 
			639.04,257.23 620.68,265.33 614.69,259.3 626.78,254.47 622.04,249.51 603.9,257.11 619.45,272.65 644.14,262.39 650.87,268.71 
			626.25,279.26 630.49,284.11 713.75,249.98 709.24,244.52 657.8,266.13 623.04,232.11 550.94,262.18 549.51,269.87 580.62,256.93 
			612.76,288.08 		"/>
		<polygon class="st5" points="704.42,215.2 708.78,220.07 650.62,244.58 625.82,220.01 551.91,249.86 553.42,241.76 580.6,231.38 
			559.22,210.57 575.37,204.01 553.43,182.71 628.36,151.94 632.85,157.01 565.31,184.94 582.05,201.21 591.24,197.58 606.7,212.83 
			593.62,218.88 588.19,213.95 595.74,210.89 589.73,204.75 571.67,212.72 587.6,228.35 620.59,215.09 590.53,185.33 597,182.19 
			604.7,190.47 630.27,180.15 635.01,185.27 610.4,195.89 640.37,225.01 674.36,211.14 678.93,215.9 645.5,230.04 652.22,236.77 		
			"/>
		<polygon class="st5" points="494.76,265.8 479.76,271.92 491.75,281.94 		"/>
		<polygon class="st5" points="600.38,151.37 496.53,193.49 491.1,188.6 511.67,180.29 504.54,172.41 471.9,185.65 503.17,216.22 
			535.47,203.25 526.11,194.2 532.82,191.21 541.63,200.38 554.75,195.09 559.38,200.39 528.72,213.27 535.5,220.71 530.08,223.58 
			522.35,215.39 476.39,234.52 471.5,229.67 496.53,219.04 488.91,212.19 465.01,222.67 449.2,207.35 467.37,199.49 472.52,204.7 
			460.72,209.69 465.84,215.3 484.46,207.7 459.85,183.2 535.79,151.88 540.57,157.39 510.85,169.9 517.97,177.59 595.34,146.37 		
			"/>
	</g>
	<g>
		<g>
			<polygon class="st6" points="218.95,407.87 210.63,399.91 213.39,385.08 221.21,381.92 215.01,376.33 221.91,339.28 
				274.45,317.64 282.89,325.61 280.13,341.49 273.57,344.08 278.73,348.99 271.73,386.64 			"/>
			<polygon class="st7" points="283.08,325.64 230.29,346.94 223.26,384.71 263,368.62 261.32,377 221.77,392.73 218.95,407.87 
				271.73,386.64 278.73,348.99 239.34,364.55 240.6,357.09 280.13,341.49 			"/>
		</g>
		<g>
			<polygon class="st6" points="298.73,264.32 306.71,260.81 348.01,300.91 343.77,323.71 335.45,327.35 325.08,318.13 
				326.54,310.31 312.01,296.22 308.3,316.81 323.89,331.45 330.44,328.35 341.03,338.42 336.73,361.58 328.39,365.25 
				287.21,324.87 			"/>
			<polygon class="st7" points="325.08,318.13 335.45,327.35 339.63,304.85 298.73,264.32 287.42,325.12 328.39,365.25 
				332.73,341.97 322.48,332.1 320.93,340.45 299.91,319.8 305.5,289.39 326.54,310.31 			"/>
		</g>
		<g>
			<polygon points="384.66,287.81 376.35,279.48 363.27,285.55 352.1,345.23 360.42,353.37 413.06,332.54 424.38,271.71 
				415.92,263.29 403.66,268.78 394.87,314.65 378.56,321.41 			"/>
			<polygon class="st7" points="411.25,276.5 424.38,271.71 413.06,332.54 360.42,353.37 371.72,292.63 384.66,287.81 376.4,333.25 
				402.67,322.58 			"/>
		</g>
		<g>
			<polygon points="358.69,428.23 354.72,449.57 346.47,452.3 333.3,439.83 318.33,445.02 315,462.94 306.18,466.26 271.81,433.63 
				275.79,412.25 285.38,408.66 299.29,421.99 312.88,417.18 316.19,398.83 324.8,394.95 			"/>
			<polygon class="st8" points="275.79,412.25 309.81,444.85 319.23,441.66 306.51,428.99 337.35,418.79 350.38,431.23 
				358.69,428.23 324.8,394.95 316.19,398.83 329.36,411.35 299.29,421.99 285.38,408.66 			"/>
		</g>
		<g>
			<polygon points="451.84,387.39 447.82,409 398.85,425.6 364.64,393.1 368.61,371.72 378.15,367.7 405.26,393.83 416.29,390.17 
				404.97,379.58 408.84,358.03 417.86,354.37 			"/>
			<polygon class="st8" points="368.61,371.72 378.15,367.7 405.26,393.83 435.48,383.79 408.84,358.03 417.86,354.37 
				451.84,387.39 402.3,404.4 			"/>
		</g>
		<g>
			<polygon points="462.96,342.72 459.01,363.94 492.78,396.18 502.56,393.29 505.88,375.44 525.73,385.22 541.78,380.18 
				545.79,358.59 512.39,325.88 503.39,328.97 500.98,340.72 487.81,334.32 			"/>
			<polygon class="st8" points="506.54,371.91 496.84,375.33 462.96,342.72 487.81,334.32 528.68,354.17 503.39,328.97 
				512.39,325.88 545.79,358.59 529.6,364.29 486.3,342.91 479.3,345.47 			"/>
		</g>
		<g>
			<polygon points="595.23,280.81 591.31,301.89 602.41,312.83 598.85,333.88 589.92,337.08 563.13,311.2 542.83,318.53 
				535.31,311.23 539.2,290.35 588.26,273.4 			"/>
			<polygon class="st8" points="539.2,290.35 546.23,297.36 567.48,290.22 594.08,315.69 602.41,312.83 576.53,287.33 
				595.23,280.81 588.26,273.4 			"/>
		</g>
		<g>
			<polygon points="440.28,215.61 448.73,211.82 489.31,251.67 484.99,274.86 480.24,277.12 482.51,289.51 478.5,312.35 
				469.66,315.68 429.06,275.89 			"/>
			<g>
				<polygon class="st7" points="440.28,215.61 480.87,255.4 476.65,278.1 471.51,277.06 474.01,292.26 469.66,315.68 
					429.06,275.89 				"/>
				<polygon class="st9" points="447.46,240.9 468.17,260.81 466.68,268.83 446.09,248.27 				"/>
				<polygon class="st9" points="443.37,262.89 464.09,282.75 462.51,291.2 441.84,271.08 				"/>
			</g>
		</g>
		<g>
			<polygon points="559.86,220.55 551.63,212.85 499.03,233.78 487.65,294.56 495.91,302.68 508.81,297.58 513.12,274.09 
				529.3,267.64 527.19,278.56 535.46,286.62 548.56,281.29 			"/>
			<g>
				<polygon class="st7" points="507.22,241.87 559.86,220.55 548.56,281.29 535.46,286.62 539.77,263.46 513.12,274.09 
					508.81,297.58 495.91,302.68 				"/>
				<polygon class="st10" points="543.8,241.46 542.4,248.96 515.73,259.72 517.09,252.42 				"/>
			</g>
		</g>
	</g>
</g>
</svg>
